<?xml version="1.0" encoding="UTF-8"?>
<svg width="200px" height="124px" viewBox="0 0 200 124" version="1.1" xmlns="http://www.w3.org/2000/svg" xmlns:xlink="http://www.w3.org/1999/xlink">
    <title>4E1E32E3-B9FB-40C0-9D00-CC631A310F44</title>
    <g id="EVD-UI_v2" stroke="none" stroke-width="1" fill="none" fill-rule="evenodd">
        <g id="EVD_HP_v2" transform="translate(-140.000000, -5860.000000)">
            <g id="FOOTER" transform="translate(0.000000, 5780.000000)">
                <g id="logo/euvsdisinfo" transform="translate(140.000000, 80.000000)">
                    <polygon id="Fill-1" fill="#F67819" points="0 123.093623 200 123.093623 200 0 0 0"></polygon>
                    <path d="M171.397558,91.0719132 C171.397558,91.7774763 171.397558,92.3744912 171.343284,92.8629579 C171.289009,93.3514247 171.180461,93.8398915 171.017639,94.3283582 C170.854817,94.7625509 170.691995,95.1424695 170.420624,95.4138399 C170.203528,95.6852103 169.877883,95.9023066 169.443691,96.0651289 C168.629579,96.3907734 167.218453,96.3907734 166.350068,96.0651289 C165.915875,95.9023066 165.590231,95.6852103 165.373134,95.4138399 C165.156038,95.1424695 164.938942,94.7625509 164.830393,94.3283582 C164.667571,93.8398915 164.559023,93.3514247 164.504749,92.8629579 C164.450475,92.3744912 164.450475,91.7774763 164.450475,91.0719132 L164.450475,74.0298507 C164.450475,73.1614654 164.504749,72.4016282 164.559023,71.8046133 C164.667571,71.2618725 164.830393,70.7191316 165.04749,70.2306649 C165.264586,69.7964722 165.590231,69.4708277 166.024423,69.1994573 C166.51289,68.9823609 167.109905,68.8195387 167.869742,68.8195387 C168.629579,68.8195387 169.226594,68.9280868 169.715061,69.1451832 C170.149254,69.3622795 170.474898,69.687924 170.746269,70.1763908 C170.963365,70.6648575 171.180461,71.2075984 171.234735,71.7503392 C171.343284,72.3473541 171.343284,73.0529172 171.343284,73.9755767 L171.343284,91.0719132 L171.397558,91.0719132 Z M176.553596,66.2686567 C174.816825,64.0976934 171.886024,63.0122117 167.924016,63.0122117 C165.915875,63.0122117 164.179104,63.2835821 162.713704,63.8263229 C161.248304,64.3690638 160.054274,65.2374491 159.185889,66.3772049 C158.317503,67.4626866 157.666214,68.8195387 157.286296,70.339213 C156.906377,71.8046133 156.689281,73.5956581 156.689281,75.6037992 L156.689281,89.4436906 C156.689281,93.568521 157.557666,96.770692 159.294437,98.8873813 C161.031208,101.058345 163.962008,102.1981 167.924016,102.1981 C169.932157,102.1981 171.668928,101.92673 173.134328,101.329715 C174.599729,100.7327 175.793758,99.8643148 176.662144,98.724559 C177.530529,97.5848033 178.181818,96.2279512 178.561737,94.7082768 C178.941655,93.1886024 179.158752,91.3975577 179.158752,89.4436906 L179.158752,75.6037992 C179.158752,71.587517 178.290366,68.4396201 176.553596,66.2686567 L176.553596,66.2686567 Z M47.6526459,89.1723202 L47.6526459,91.2347354 C47.6526459,91.6689281 47.5983718,92.265943 47.5440977,92.8629579 C47.4898236,93.4599729 47.3812754,93.9484396 47.2727273,94.21981 C47.1641791,94.5454545 47.0013569,94.8710991 46.7842605,95.1967436 C46.5671642,95.5223881 46.3500678,95.7394844 46.0786974,95.8480326 C45.7530529,96.0108548 45.3188602,96.119403 44.8303935,96.2822252 C44.3419267,96.3907734 43.7449118,96.4450475 43.0936228,96.4450475 L41.5196744,96.4450475 L41.5196744,68.8195387 L43.0393487,68.8195387 C43.7991859,68.8195387 44.4504749,68.8738128 44.9932157,68.9823609 C45.4816825,69.0909091 45.9158752,69.2537313 46.2415197,69.4708277 C46.5671642,69.687924 46.8385346,69.9592944 47.0556309,70.2306649 C47.2184532,70.5020353 47.3812754,70.8819539 47.4898236,71.3704206 C47.5983718,71.9131615 47.6526459,72.4559023 47.7069199,72.9986431 C47.761194,73.541384 47.761194,74.3012212 47.761194,75.1696065 L47.761194,89.1723202 L47.6526459,89.1723202 Z M55.0339213,69.9592944 C54.5997286,68.4396201 53.8941655,67.1370421 52.917232,66.1058345 C51.9402985,65.0746269 50.5834464,64.2605156 49.009498,63.7720488 C47.4355495,63.2835821 45.4274084,63.0664858 43.0936228,63.0664858 L33.7042062,63.0664858 L33.7042062,102.252374 L43.3107191,102.252374 C45.5902307,102.252374 47.4898236,101.981004 49.063772,101.492537 C50.6377205,100.949796 51.9402985,100.135685 52.917232,98.9959294 C53.8941655,97.9104478 54.5454545,96.5535957 54.9796472,94.9253731 C55.4138399,93.3514247 55.5766621,91.4518318 55.5766621,89.2265943 L55.5766621,75.4409769 C55.6309362,73.2700136 55.4138399,71.4246947 55.0339213,69.9592944 L55.0339213,69.9592944 Z M172.808684,60.0814111 C170.583446,60.0814111 168.90095,59.375848 167.70692,58.0189959 C166.51289,56.6621438 165.861601,54.7625509 165.753053,52.3744912 L169.063772,51.4518318 C169.280868,55.2510176 170.529172,57.1506106 172.808684,57.1506106 C173.731343,57.1506106 174.49118,56.8792402 174.979647,56.3364993 C175.468114,55.7937585 175.739484,55.0339213 175.739484,54.0027137 C175.739484,53.4599729 175.68521,52.917232 175.522388,52.4287653 C175.359566,51.9402985 175.196744,51.5061058 174.871099,51.0719132 C174.545455,50.6377205 174.274084,50.312076 174.002714,49.9864315 C173.731343,49.7150611 173.351425,49.3351425 172.862958,48.8466757 L168.412483,44.8846676 C167.489824,44.0705563 166.838535,43.202171 166.458616,42.3337856 C166.024423,41.4111262 165.861601,40.3256445 165.861601,39.0230665 C165.861601,37.1234735 166.404342,35.6037992 167.544098,34.5183175 C168.683853,33.4328358 170.203528,32.890095 172.103121,32.890095 C174.21981,32.8358209 175.793758,33.4328358 176.87924,34.5183175 C177.910448,35.6580733 178.561737,37.394844 178.778833,39.7286296 L175.630936,40.5970149 C175.576662,40 175.522388,39.5115332 175.468114,39.0773406 C175.41384,38.6431479 175.251018,38.1546811 175.088195,37.7204885 C174.925373,37.2862958 174.708277,36.9063772 174.436906,36.6350068 C174.165536,36.3636364 173.839891,36.14654 173.459973,35.9837178 C173.080054,35.8208955 172.591588,35.7666214 172.048847,35.7666214 C170.09498,35.9294437 169.118046,36.8521031 169.118046,38.697422 C169.118046,39.4572592 169.226594,40.1085482 169.497965,40.651289 C169.769335,41.1940299 170.203528,41.7367707 170.854817,42.2795115 L175.359566,46.2415197 C176.499322,47.2727273 177.476255,48.412483 178.127544,49.6065129 C178.833107,50.8005427 179.158752,52.1573948 179.158752,53.6770692 C179.158752,55.6309362 178.561737,57.1506106 177.421981,58.2903664 C176.227951,59.4843962 174.708277,60.0814111 172.808684,60.0814111 L172.808684,60.0814111 Z M154.301221,60.0814111 L148.222524,32.9443691 L151.750339,32.9443691 L156.037992,52.917232 L160.108548,32.9443691 L163.58209,32.9443691 L157.557666,60.0814111 L154.301221,60.0814111 Z M130.963365,59.972863 C129.226594,59.972863 127.652646,59.8100407 126.350068,59.4301221 C125.04749,59.0502035 123.962008,58.5617368 123.093623,57.8561737 C122.225237,57.2048847 121.519674,56.3364993 120.976934,55.2510176 C120.434193,54.165536 120.054274,53.0257802 119.837178,51.7232022 C119.620081,50.4206242 119.511533,48.9552239 119.511533,47.2184532 L119.511533,20.8412483 L127.924016,20.8412483 L127.924016,48.5753053 C127.924016,49.1723202 127.924016,49.7150611 127.97829,50.1492537 C128.032564,50.5834464 128.086839,51.0176391 128.195387,51.5603799 C128.303935,52.1031208 128.466757,52.4830393 128.683853,52.8086839 C128.90095,53.1343284 129.17232,53.4056988 129.552239,53.6227951 C129.932157,53.8398915 130.36635,53.9484396 130.909091,53.9484396 C131.451832,53.9484396 131.886024,53.8398915 132.265943,53.6227951 C132.645862,53.4056988 132.917232,53.1343284 133.134328,52.8086839 C133.351425,52.4830393 133.514247,52.1031208 133.622795,51.5603799 C133.731343,51.0719132 133.839891,50.5834464 133.839891,50.1492537 C133.894166,49.7150611 133.894166,49.2265943 133.894166,48.6295794 L133.894166,20.8412483 L142.360923,20.8412483 L142.360923,47.3270014 C142.360923,49.4436906 142.1981,51.2890095 141.818182,52.8086839 C141.438263,54.3283582 140.841248,55.6309362 139.972863,56.770692 C139.104478,57.9104478 137.964722,58.724559 136.445047,59.2672999 C135.033921,59.7014925 133.188602,59.972863 130.963365,59.972863 L130.963365,59.972863 Z M98.1275441,59.972863 L98.1275441,20.8412483 L115.712347,20.8412483 L115.712347,26.7571235 L106.757123,26.7571235 L106.757123,36.4179104 L113.595658,36.4179104 L113.595658,42.4423338 L106.757123,42.4423338 L106.757123,54.1112619 L115.820896,54.1112619 L115.820896,59.972863 C115.820896,59.972863 98.1275441,59.972863 98.1275441,59.972863 L98.1275441,59.972863 Z M68.4396201,73.4328358 L68.4396201,102.252374 L60.7327001,102.252374 L60.7327001,75.0067843 L68.4396201,73.4328358 Z M60.6784261,70.2306649 L60.6784261,63.0122117 L68.385346,63.0122117 L68.385346,68.6567164 L60.6784261,70.2306649 Z M105.888738,73.4328358 L105.888738,102.252374 L98.1818182,102.252374 L98.1818182,75.0067843 L105.888738,73.4328358 Z M98.1275441,70.2306649 L98.1275441,63.0122117 L105.834464,63.0122117 L105.834464,68.6567164 L98.1275441,70.2306649 Z M137.096336,63.0664858 L153.704206,63.0664858 L153.704206,68.7109905 L144.911805,68.7109905 L144.911805,79.0230665 L151.913161,79.0230665 L151.913161,84.7761194 L144.911805,84.7761194 L144.911805,102.252374 L137.096336,102.252374 L137.096336,63.0664858 Z M125.31886,63.0664858 L131.940299,63.0664858 L131.940299,102.252374 L126.675712,102.252374 L117.883311,81.0854817 L117.883311,102.252374 L111.153324,102.252374 L111.153324,63.0664858 L116.635007,63.0664858 L125.31886,83.202171 L125.31886,63.0664858 Z M93.1886024,89.1180461 C93.4599729,90.2035278 93.6227951,91.3975577 93.6227951,92.5915875 C93.6227951,95.4138399 92.7001357,97.7476255 90.9090909,99.5386703 C89.1180461,101.329715 86.7299864,102.1981 83.7991859,102.1981 C76.9606513,102.1981 73.3242877,98.2360923 72.9986431,90.3663501 L72.9986431,90.0407056 L79.7829037,88.6295794 L79.7829037,89.1180461 C79.9457259,93.8398915 81.1940299,96.1736771 83.6363636,96.1736771 C84.5590231,96.1736771 85.2103121,95.9023066 85.6445047,95.3595658 C86.0786974,94.816825 86.2957938,94.0027137 86.2957938,93.0800543 C86.2957938,92.1031208 86.1329715,91.1804613 85.7530529,90.3663501 C85.3731343,89.5522388 84.9932157,88.8466757 84.504749,88.358209 C84.0162822,87.8154681 83.3107191,87.1641791 82.3880597,86.3500678 L77.449118,82.0624152 C75.9837178,80.7598372 74.843962,79.4029851 74.1383989,77.9918589 C73.3785617,76.5807327 73.0529172,74.7896879 73.0529172,72.6729986 C73.0529172,69.6336499 73.9755767,67.2998643 75.7666214,65.6173677 C77.5576662,63.9348711 80,63.0664858 83.0936228,63.0664858 C84.504749,63.0122117 85.7530529,63.229308 86.8928087,63.6092266 C87.9782904,63.9891452 88.9009498,64.4776119 89.660787,65.1289009 C90.3663501,65.78019 91.0176391,66.5400271 91.4518318,67.4626866 C91.9402985,68.385346 92.265943,69.3622795 92.5373134,70.339213 C92.7544098,71.3161465 92.917232,72.4016282 93.0257802,73.5956581 L93.0800543,73.9755767 L86.4043419,75.2781547 L86.4043419,74.7896879 C86.3500678,74.0298507 86.3500678,73.3785617 86.2415197,72.8358209 C86.1872456,72.2930801 86.0786974,71.7503392 85.9158752,71.2075984 C85.7530529,70.6648575 85.5902307,70.2849389 85.3188602,69.9592944 C85.1017639,69.687924 84.7761194,69.4165536 84.3962008,69.2537313 C84.0162822,69.0909091 83.5820896,68.9823609 83.0393487,69.036635 C82.1166893,69.0909091 81.4654003,69.3622795 80.9769335,69.9050204 C80.4884668,70.4477612 80.2713704,71.1533243 80.2713704,72.0759837 C80.2713704,73.2157395 80.4884668,74.1383989 80.9226594,74.843962 C81.3568521,75.6037992 82.1166893,76.4179104 83.0936228,77.2320217 L87.9782904,81.4654003 C88.7924016,82.2252374 89.5522388,82.9308005 90.1492537,83.6363636 C90.7462687,84.3419267 91.3432836,85.156038 91.9402985,86.0786974 C92.4287653,87.0013569 92.917232,88.0325645 93.1886024,89.1180461 L93.1886024,89.1180461 Z" id="Fill-2" fill="#FFFFFF"></path>
                </g>
            </g>
        </g>
    </g>
</svg>