<?xml version="1.0" encoding="utf-8"?>
<!-- Generator: Adobe Illustrator 16.0.0, SVG Export Plug-In . SVG Version: 6.00 Build 0)  -->
<!DOCTYPE svg PUBLIC "-//W3C//DTD SVG 1.1//EN" "http://www.w3.org/Graphics/SVG/1.1/DTD/svg11.dtd">
<svg version="1.1" id="Layer_1" xmlns="http://www.w3.org/2000/svg" xmlns:xlink="http://www.w3.org/1999/xlink" x="0px" y="0px"
	 width="405.846px" height="168.123px" viewBox="0 0 405.846 168.123" enable-background="new 0 0 405.846 168.123"
	 xml:space="preserve">
<g>
	<defs>
		<rect id="SVGID_1_" width="405.846" height="168.123"/>
	</defs>
	<clipPath id="SVGID_2_">
		<use xlink:href="#SVGID_1_"  overflow="visible"/>
	</clipPath>
	<path clip-path="url(#SVGID_2_)" fill="#C4C5C7" d="M60.53,141.493c-0.076,0-0.154-0.008-0.221-0.03
		c-0.448-0.123-0.707-0.578-0.586-1.021c1.013-3.646,1.278-72.346,1.278-108.163c0-0.46,0.372-0.837,0.836-0.837
		c0.459,0,0.831,0.377,0.831,0.837c0,4.236-0.016,103.84-1.34,108.606C61.228,141.252,60.89,141.493,60.53,141.493"/>
	<path clip-path="url(#SVGID_2_)" fill="#C4C5C7" d="M98.793,29.2c-6.064,0-11.558-1.35-15.676-2.769
		c-0.431-0.15-0.663-0.626-0.519-1.056c0.154-0.435,0.629-0.667,1.061-0.515c6.162,2.125,15.508,4.081,25.076,1.304
		c0.447-0.127,0.906,0.121,1.035,0.565c0.125,0.44-0.128,0.9-0.567,1.029C105.651,28.79,102.14,29.2,98.793,29.2"/>
	<path clip-path="url(#SVGID_2_)" fill="#C4C5C7" d="M38.209,168.123c-7.49,0-14.919-3.607-20.531-6.335
		c-7.538-3.66-12.769,0.52-15,2.298c-0.31,0.25-0.57,0.455-0.771,0.597c-0.378,0.26-0.896,0.166-1.159-0.21
		c-0.263-0.379-0.17-0.897,0.208-1.16c0.179-0.123,0.412-0.31,0.687-0.527c2.259-1.807,8.269-6.611,16.649-2.549
		c9.162,4.447,21.551,10.465,31.826,1.939c0.355-0.291,0.878-0.242,1.175,0.109c0.292,0.354,0.243,0.88-0.111,1.175
		C47.066,166.87,42.629,168.123,38.209,168.123"/>
	<path clip-path="url(#SVGID_2_)" fill="#C4C5C7" d="M38.798,143.124c-0.458,0-0.828-0.377-0.828-0.835V70.848
		c0-0.461,0.37-0.83,0.828-0.83c0.461,0,0.83,0.369,0.83,0.83v71.441C39.628,142.747,39.259,143.124,38.798,143.124"/>
	<path clip-path="url(#SVGID_2_)" fill="#C4C5C7" d="M38.798,71.679h-0.034c-0.457-0.017-0.812-0.402-0.794-0.861
		c0-0.056,0.159-5.396-3.26-5.903c-0.455-0.068-0.768-0.49-0.702-0.943c0.063-0.453,0.487-0.767,0.944-0.701
		c4.895,0.72,4.691,7.331,4.676,7.614C39.615,71.328,39.241,71.679,38.798,71.679"/>
	<path clip-path="url(#SVGID_2_)" fill="#C4C5C7" d="M272.498,100.26h-0.024c-0.45-0.01-0.821-0.388-0.806-0.849l0.69-38.524
		c0.015-0.458,0.42-0.806,0.852-0.816c0.457,0.006,0.819,0.387,0.815,0.845l-0.692,38.524
		C273.322,99.895,272.948,100.26,272.498,100.26"/>
	<path clip-path="url(#SVGID_2_)" fill="#C4C5C7" d="M288.732,122.471c-0.03,0-0.056-0.003-0.089-0.003
		c-11.097-1.136-14.875-9.277-16.138-14.033c-0.117-0.441,0.148-0.897,0.595-1.014c0.442-0.116,0.895,0.146,1.018,0.589
		c1.149,4.336,4.596,11.768,14.693,12.797c0.457,0.052,0.792,0.46,0.745,0.915C289.513,122.152,289.151,122.471,288.732,122.471"/>
	<path clip-path="url(#SVGID_2_)" fill="#C4C5C7" d="M254.529,120.854c-3.97,0-8.563-1.983-9.247-2.295
		c-0.063-0.029-0.123-0.061-0.171-0.102c-10.362-8.059-9.605-16.783-9.57-17.15l1.391-42.357c0.016-0.447,0.387-0.802,0.835-0.802
		h0.03c0.455,0.017,0.82,0.398,0.803,0.86l-1.399,42.415c-0.014,0.131-0.654,8.216,8.851,15.658c2.457,1.078,9.052,3.3,11.624,1.283
		c0.355-0.283,0.877-0.226,1.168,0.137c0.282,0.364,0.216,0.889-0.143,1.17C257.599,120.536,256.114,120.854,254.529,120.854"/>
	<path clip-path="url(#SVGID_2_)" fill="#C4C5C7" d="M365,101.349h-0.011c-0.461-0.004-0.828-0.379-0.819-0.843l1.046-85.344
		c0.002-0.453,0.375-0.82,0.833-0.82h0.008c0.462,0.006,0.826,0.383,0.822,0.842l-1.053,85.345
		C365.824,100.981,365.453,101.349,365,101.349"/>
	<path clip-path="url(#SVGID_2_)" fill="#C4C5C7" d="M383.671,122.816h-1.044c-0.095,0-0.175-0.01-0.257-0.041
		c-9.179-3.03-13.626-8.796-15.743-13.101c-0.197-0.412-0.028-0.91,0.384-1.113c0.412-0.201,0.908-0.033,1.108,0.384
		c2.859,5.805,7.781,9.913,14.642,12.206h0.91c0.462,0,0.833,0.373,0.833,0.835C384.504,122.443,384.133,122.816,383.671,122.816"/>
	<path clip-path="url(#SVGID_2_)" fill="#C4C5C7" d="M351.768,122.117c-0.046,0-0.088-0.002-0.129-0.008
		c-0.15-0.022-14.427-2.437-15.477-17.729c-0.035-0.457,0.311-0.854,0.768-0.884c0.464-0.021,0.858,0.313,0.887,0.773
		c0.959,13.945,13.545,16.106,14.078,16.193c0.453,0.073,0.767,0.498,0.692,0.955C352.524,121.826,352.171,122.117,351.768,122.117
		 M317.908,121.422c-0.037,0-0.072,0-0.105-0.004c-0.427-0.055-10.568-1.434-15.322-10.059c-0.221-0.402-0.076-0.905,0.326-1.131
		c0.4-0.217,0.911-0.075,1.136,0.326c4.336,7.874,13.972,9.198,14.071,9.208c0.454,0.064,0.775,0.475,0.715,0.932
		C318.675,121.117,318.316,121.422,317.908,121.422 M301.048,104.316c-0.425,0-0.792-0.328-0.823-0.765
		c-0.043-0.468-0.067-0.95-0.078-1.444c-0.348-16.236-0.004-31.298,0-31.45c0.011-0.463,0.377-0.816,0.854-0.814
		c0.459,0.01,0.819,0.392,0.809,0.853c0,0.148-0.342,15.179,0,31.372c0.011,0.464,0.032,0.909,0.071,1.348
		c0.036,0.457-0.304,0.861-0.761,0.896C301.101,104.316,301.069,104.316,301.048,104.316 M336.91,96.617
		c-0.459,0-0.83-0.371-0.84-0.828l-0.145-34.127c-1.908-0.203-6.975-0.854-10.987-2.431c-0.432-0.168-0.637-0.65-0.471-1.078
		c0.166-0.427,0.649-0.638,1.081-0.472c4.718,1.856,11.21,2.385,11.274,2.389c0.43,0.035,0.766,0.394,0.766,0.829l0.151,34.886
		C337.74,96.242,337.374,96.617,336.91,96.617"/>
	<path clip-path="url(#SVGID_2_)" fill="#C4C5C7" d="M140.117,122.117c-0.045,0-0.088-0.002-0.127-0.008
		c-0.143-0.022-13.736-2.315-15.383-16.616c-0.054-0.455,0.278-0.867,0.733-0.921c0.432-0.061,0.865,0.272,0.918,0.729
		c1.503,13.026,13.477,15.082,13.986,15.162c0.453,0.073,0.761,0.498,0.69,0.955C140.873,121.826,140.516,122.117,140.117,122.117
		 M106.258,121.422c-0.036,0-0.073,0-0.101-0.004c-0.179-0.024-17.302-2.387-17.662-19.311c-0.345-16.236,0-31.298,0-31.45
		c0.01-0.463,0.448-0.816,0.852-0.814c0.462,0.01,0.824,0.392,0.81,0.853c0,0.148-0.348,15.179,0,31.372
		c0.335,15.479,15.553,17.612,16.2,17.694c0.457,0.064,0.786,0.475,0.727,0.932C107.028,121.117,106.672,121.422,106.258,121.422
		 M125.255,94.995c-0.455,0-0.825-0.369-0.825-0.828l-0.154-32.505c-1.907-0.203-6.971-0.854-10.99-2.431
		c-0.428-0.168-0.638-0.65-0.47-1.078c0.166-0.427,0.652-0.638,1.08-0.472c4.714,1.856,11.21,2.385,11.275,2.389
		c0.429,0.035,0.767,0.394,0.77,0.827l0.149,33.259c0.002,0.46-0.369,0.833-0.829,0.839H125.255z"/>
	<path clip-path="url(#SVGID_2_)" fill="#C4C5C7" d="M182.652,62.257c-3.952,0-7.319-1.428-9.096-2.367
		c-0.408-0.218-0.566-0.716-0.344-1.124c0.209-0.41,0.715-0.562,1.12-0.351c2.869,1.516,10.285,4.445,17.097-0.948
		c0.357-0.28,0.88-0.223,1.169,0.138c0.286,0.361,0.222,0.886-0.141,1.171C189.144,61.396,185.721,62.257,182.652,62.257"/>
	<path clip-path="url(#SVGID_2_)" fill="#C4C5C7" d="M168.983,122.758c-0.09,0-0.175-0.011-0.261-0.041
		c-6.919-2.285-12.03-6.338-15.181-12.026c-0.22-0.406-0.077-0.911,0.326-1.132c0.405-0.226,0.91-0.076,1.128,0.324
		c2.946,5.315,7.737,9.109,14.244,11.252c0.439,0.146,0.68,0.62,0.531,1.055C169.658,122.536,169.334,122.758,168.983,122.758"/>
	<path clip-path="url(#SVGID_2_)" fill="#C4C5C7" d="M151.2,101.523h-0.006c-0.461,0-0.834-0.376-0.83-0.833l0.176-32.293
		c0.007-0.453,0.373-0.823,0.831-0.823h0.01c0.458,0.003,0.829,0.376,0.825,0.833l-0.177,32.296
		C152.029,101.158,151.656,101.523,151.2,101.523"/>
	<path clip-path="url(#SVGID_2_)" fill="#C4C5C7" d="M214.031,122.816c-0.091,0-0.175-0.01-0.27-0.041
		c-17.804-5.879-18.192-22.085-18.192-22.253l0.589-47.909c0.004-0.459,0.375-0.824,0.834-0.824h0.009
		c0.455,0.006,0.828,0.383,0.82,0.843l-0.589,47.896c0.013,0.596,0.4,15.168,17.055,20.666c0.436,0.144,0.673,0.615,0.528,1.048
		C214.702,122.596,214.38,122.816,214.031,122.816"/>
	<path clip-path="url(#SVGID_2_)" fill="#C4C5C7" d="M197.136,41.383h-0.01c-0.458,0-0.829-0.381-0.824-0.841l0.317-25.381
		c0.002-0.459,0.429-0.826,0.837-0.82c0.461,0.006,0.825,0.383,0.821,0.843l-0.31,25.379
		C197.963,41.02,197.594,41.383,197.136,41.383"/>
	<path clip-path="url(#SVGID_2_)" fill="#C4C5C7" d="M218.986,60.362c-2.457,0-4.998-0.302-7.243-1.161
		c-0.428-0.168-0.637-0.65-0.475-1.077c0.161-0.428,0.643-0.643,1.073-0.479c6.795,2.612,17.105-0.489,17.212-0.523
		c0.441-0.136,0.903,0.112,1.041,0.553c0.132,0.439-0.114,0.907-0.553,1.036C229.731,58.807,224.57,60.362,218.986,60.362"/>
	<path clip-path="url(#SVGID_2_)" fill="#404041" d="M290.982,92.711c0-14.14,0.528-49.219,0.528-49.219l-13.617,13.443
		l-0.699,41.071l-6.348,5.984c0,0-16.519-1.501-16.519-12.153c0-10.645,1.925-48.52,1.925-48.52l-13.786,11.696l-1.401,42.411
		c0,0-0.863,8.541,9.253,16.406c0,0,9.268,4.338,12.561,1.218c4.924-4.647,14.486-14.488,14.486-14.488s0.701,15.541,16.059,17.114
		l11.169-11.52C304.593,106.154,290.982,106.843,290.982,92.711"/>
	<path clip-path="url(#SVGID_2_)" fill="#404041" d="M134.014,6.321c0,0,0.822-0.449,0.766,0.346"/>
	<path clip-path="url(#SVGID_2_)" fill="#404041" d="M367.365,105.129c0,0.602-0.531,1.091-1.181,1.091
		c-0.645,0-1.171-0.489-1.171-1.091s0.526-1.09,1.171-1.09C366.834,104.039,367.365,104.527,367.365,105.129"/>
	<path clip-path="url(#SVGID_2_)" fill="#404041" d="M405.2,97.797c-0.151,0-0.423,0.149-0.423,0.149l-5.759,5.587
		c0,0-14.661,2.266-15.357-11.52c-0.697-13.789,1.19-90.636,1.19-90.636C384.826,0.611,384.545,0,384.191,0
		c-0.059,0-0.18,0.031-0.18,0.031l-13.271,11.175l-1.044,85.342c0,0,0.18,15.709,17.629,21.468h1.048L405.6,99.229
		c0.148-0.15,0.247-0.371,0.247-0.624C405.847,98.158,405.555,97.797,405.2,97.797"/>
	<path clip-path="url(#SVGID_2_)" fill="#404041" d="M366.412,104.057c-13.439-4.367-11.868-18.327-11.868-38.399
		c0-13.45,1.337-19.132,2.208-21.425c0.056-0.086,0.093-0.18,0.093-0.291c0-0.326-0.261-0.591-0.587-0.591
		c-0.109,0-0.209,0.033-0.3,0.092c0-0.006-0.007-0.01-0.007-0.016c-1.015,1.062-3.507,1.987-9.604-0.63
		c-9.779-4.19-16.06-0.174-16.06-0.174l-24.612,24.085c0,0-0.35,15.008,0,31.416c0.348,16.402,16.929,18.496,16.929,18.496
		l19.017-19.811l0.012,2.36c0.352,15.879,14.833,18.149,14.833,18.149l10.649-11.52L366.412,104.057z M332.206,103.533
		c-13.961-3.318-13.611-17.108-13.611-17.108l0.699-32.612c0,0,5.759-1.245,10.649,0.671c4.883,1.924,11.512,2.45,11.512,2.45
		l0.153,36.726L332.206,103.533z"/>
	<path clip-path="url(#SVGID_2_)" fill="#404041" d="M242.495,42.651c0-0.31-0.236-0.554-0.525-0.554
		c-0.077,0-0.131,0.052-0.202,0.086c-3.892,1.405-9.012,0.656-16.404-0.436c-3.729-0.554-7.146,0.293-9.935,1.515
		c0.384-19.255,0.856-41.833,0.856-41.833l-0.871-1.398l-13.27,11.175l-1.042,85.342c0,0,0.17,15.709,17.622,21.468h1.049
		l17.19-18.75c0.154-0.144,0.266-0.369,0.266-0.636c0-0.447-0.287-0.809-0.631-0.809c-0.152,0-0.275,0.07-0.381,0.175l-5.792,5.537
		c0,0-14.667,2.266-15.363-11.52c-0.283-5.621-0.135-20.829,0.143-36.884c7.335,2.194,17.665-1.862,17.665-1.862l9.457-10.154
		c-0.023-0.014-0.033-0.032-0.049-0.049C242.399,42.965,242.495,42.827,242.495,42.651"/>
	<path clip-path="url(#SVGID_2_)" fill="#404041" d="M134.78,6.667l-0.766-0.346c0,0-22.102,16.228-41.556-2.533l-25.926,24.52
		c0,0,0,103.669-1.305,108.384c-1.309,4.711-5.759,19.372-23.82,11.778c-18.068-7.59-22.786-8.372-28.801-2.619
		c-6.026,5.765-12.567,12.045-12.567,12.045s-0.391,2.092,1.312,0.914c1.696-1.177,7.588-7.33,16.491-3.009
		c8.902,4.317,21.992,10.736,32.724,1.832c10.737-8.9,28.275-22.908,28.405-33.379c0.079-6.316,0.108-42.531,0.44-70.887
		c3.407,0.027,9.283-0.059,13.828-0.845c5.256-0.908,14.053-10.274,17.78-14.489c-0.046-0.764-0.223-0.885-0.751-0.518
		c-2.908,1.599-7.967,3.884-13.189,3.884c-8.025,0-17.278-0.529-17.278-0.529h-0.213c0.213-12.57,0.523-21.679,0.956-22.512
		C80.544,18.359,113.655,37.903,134.78,6.667"/>
	<path clip-path="url(#SVGID_2_)" fill="#404041" d="M30.403,63.914c13.615-10.123,13.095,2.966,13.095,2.966v81.854
		c15.353-0.171,13.093-31.415,13.093-31.415s-0.176-68.939-0.353-72.951c-0.17-4.015-2.441-3.143-2.441-3.143L29.536,61.995
		c0,0-0.245,0.379-0.294,0.857C29.137,64.004,30.403,63.914,30.403,63.914"/>
	<path clip-path="url(#SVGID_2_)" fill="#404041" d="M155.806,105.016c0-0.595-0.435-1.076-0.97-1.076
		c-0.086,0-0.156,0.03-0.236,0.051c-13.248-4.428-11.704-18.347-11.704-38.333c0-13.45,1.331-19.132,2.209-21.425
		c0.048-0.086,0.091-0.18,0.091-0.291c0-0.326-0.263-0.591-0.591-0.591c-0.112,0-0.207,0.033-0.296,0.092
		c-0.002-0.006-0.01-0.01-0.01-0.016c-1.011,1.062-3.505,1.987-9.604-0.63c-9.778-4.19-16.057-0.174-16.057-0.174L94.026,66.707
		c0,0-0.348,15.008,0,31.416c0.351,16.402,16.929,18.496,16.929,18.496l19.015-19.811l0.01,2.36
		c0.353,15.879,14.836,18.149,14.836,18.149l10.584-11.451C155.638,105.674,155.806,105.373,155.806,105.016 M120.557,103.533
		c-13.961-3.318-13.611-17.108-13.611-17.108l0.696-32.056c0,0,5.758-1.801,10.651,0.115c4.88,1.924,11.509,2.45,11.509,2.45
		l0.155,36.726L120.557,103.533z"/>
	<path clip-path="url(#SVGID_2_)" fill="#404041" d="M200.404,45.091c0-0.412-0.3-0.742-0.675-0.742
		c-0.059,0-0.111,0.018-0.164,0.032l-0.037-0.014c0,0-3.839,1.569-8.896-0.527c-5.068-2.094-10.825-2.27-14.315,1.397
		c-3.491,3.662-20.246,19.2-20.246,19.2l-0.176,32.287c0,0,0.051,1.561,0.821,3.923c1.312,5.068,5.231,13.435,16.967,17.313h1.044
		l17.281-18.852L192,99.095c0.145-0.147,0.239-0.354,0.239-0.595c0-0.449-0.312-0.806-0.705-0.806c-0.238,0-0.443,0.146-0.567,0.356
		l-5.596,5.425c0,0-0.053,0.006-0.154,0.017l0.012-0.011c0,0-15.019-2.396-15.547-13.218c-0.52-10.816-0.693-36.175-0.693-36.175
		s3.837-0.65,8.201,1.624c4.355,2.266,10.3,2.965,15.183-2.274c3.56-3.809,6.341-6.479,7.608-7.666
		C200.225,45.664,200.404,45.403,200.404,45.091"/>
</g>
</svg>
