<svg id="Layer_2" data-name="Layer 2" xmlns="http://www.w3.org/2000/svg" viewBox="0 0 159.23 194.44"><defs><style>.cls-1,.cls-2,.cls-4{fill:#212121;}.cls-1,.cls-3{stroke:#212121;stroke-miterlimit:10;}.cls-1{stroke-width:0.5px;}.cls-3{fill:none;}.cls-4{font-size:37px;font-family:Roboto-Bold, Roboto;font-weight:700;}.cls-5{letter-spacing:-0.02em;}.cls-6{letter-spacing:-0.01em;}</style></defs><g id="Magnifier"><line class="cls-1" x1="46.44" y1="118.72" x2="51.82" y2="111.23"/><line class="cls-1" x1="60.4" y1="128.54" x2="65.81" y2="120.69"/><path class="cls-2" d="M188.2,190.55l-9.28,13.17c-.78-.4-1.63-.81-2.56-1.24-4.56-2.12-10.48-.41-13,2.85-2.27,3-7.89,12.62-14.29,22.24-2.81,4.23-.57,11.79,2.07,13.8l.81.61-7.85,11.15a2.64,2.64,0,0,1-3.68.63L129,245.67a2.64,2.64,0,0,1-.64-3.68l7.84-11.14,36.22-51.44a2.82,2.82,0,0,1,.55-.57,2.66,2.66,0,0,1,3.13-.07l11.5,8.1A2.64,2.64,0,0,1,188.2,190.55Z" transform="translate(-127.84 -59.8)"/><path class="cls-2" d="M222.63,59.8a64.44,64.44,0,1,0,64.43,64.44A64.44,64.44,0,0,0,222.63,59.8Zm.42,115.94c-28.89,0-52.32-23.18-52.32-51.78s23.43-51.78,52.32-51.78S275.37,95.37,275.37,124,252,175.74,223.05,175.74Z" transform="translate(-127.84 -59.8)"/></g><g id="Hand"><path class="cls-3" d="M136.18,231.38a13.89,13.89,0,0,1-3.21-7.11c-.63-5.34,2.68-8.59,7.49-15.75,8.49-12.63,14-19.78,17.81-24.86.93-1.24,4-2.12,6.49-1a6.41,6.41,0,0,1,3.14,3.67" transform="translate(-127.84 -59.8)"/><path class="cls-3" d="M192.52,220.24c-2.75,4.91-4,6.69-8.49,13.6-5.77,8.93-6.52,10.28-9.63,14.83-2.65,3.88-8.22,2.52-9.48,1.68-4.6-3.11-7.2-4.09-12.94-8.37l-.81-.61c-2.64-2-4.88-9.57-2.07-13.8,6.4-9.62,12-19.25,14.29-22.24,2.49-3.26,8.41-5,13-2.85.93.43,1.78.84,2.56,1.24,6.19,3.1,8.34,5.25,13.29,9.25C194.76,215,193.21,219,192.52,220.24Z" transform="translate(-127.84 -59.8)"/><line class="cls-3" x1="33.42" y1="148.09" x2="60.84" y2="166.61"/><line class="cls-3" x1="24.36" y1="162.71" x2="52.16" y2="180.48"/><path class="cls-3" d="M150.94,235.29c2.25,2,4.6,2,6-.46,1.1-1.94-1.09-3.91-4.7-5.77" transform="translate(-127.84 -59.8)"/><path class="cls-3" d="M157.55,219.89c3.36,1.81,5.94,3,7,.5,1.16-2.67-.67-3.61-3.52-5.58" transform="translate(-127.84 -59.8)"/><path class="cls-3" d="M167.22,206.78c3,3.35,5,4.17,7.14,2.45,1.6-1.31.41-3.75-.38-4.36" transform="translate(-127.84 -59.8)"/></g><text class="cls-4" transform="translate(58.4 76.21)"><tspan class="cls-5">F</tspan><tspan x="19.66" y="0">a</tspan><tspan class="cls-6" x="39.49" y="0">k</tspan><tspan x="58.9" y="0">e</tspan></text></svg>