<svg version="1.2" xmlns="http://www.w3.org/2000/svg" viewBox="0 0 1317 276" width="300" height="63">
	<title>logo-svg</title>
	<style>
		.s0 { fill: #ffffff } 
		.s1 { fill: #f9bb00 } 
		.s2 { fill: #000000 } 
	</style>
	<g id="_Artboards_">
		<path id="Artboard 1" class="s0" d="m-360-1506h1920v1080h-1920z"/>
		<path id="Artboard 1 copy" class="s0" d="m-360-401h1920v1080h-1920z"/>
	</g>
	<g id="Layer 1">
		<path id="&lt;Path&gt;" class="s1" d="m1563.9 682.8h-1926.8v-1087.6h1926.8z"/>
		<path id="&lt;Path&gt;" class="s1" d="m1563.9-422.2h-1926.8v-1087.6h1926.8z"/>
		<g id="&lt;Group&gt;">
			<g id="&lt;Group&gt;">
				<path id="&lt;Compound Path&gt;" class="s2" d="m241.6-903h-34.2l-28.5-118.9h25.8l18.2 80.1 2.3 15.2 2.4-15.4 17.7-79.9h25.2z"/>
				<path id="&lt;Compound Path&gt;" fill-rule="evenodd" class="s2" d="m306.9-901.2c-26.7 0-36.4-15-36.4-46.8 0-31.5 13.8-47.8 38.8-47.8 19.8 0 34.3 12.9 34.3 40.4 0 4.1-0.2 9.7-0.7 14.1h-49.1c0 15 5 21.2 16.4 21.2 7.1 0 17.8-1.6 27.9-4.4l4.2 16.1c-12.5 5.1-23.6 7.2-35.4 7.2zm13.9-58.1c0-10.4-3.5-18.5-13.2-18.5-9.9 0-13.8 9.5-14 19.8h27.2z"/>
				<path id="&lt;Compound Path&gt;" class="s2" d="m398-971.6c-6.7 0-10.5 2.5-16.9 8.3v60.3h-23.1v-90.8h18.9l2.1 11.1c10.2-11 13.8-13.1 20.8-13.1h3.9v24.2z"/>
				<path id="&lt;Compound Path&gt;" class="s2" d="m415.2-1008.3v-22.1h23.1v22.1zm0 105.3v-90.8h23.1v90.8z"/>
				<path id="&lt;Compound Path&gt;" fill-rule="evenodd" class="s2" d="m507.4-903l-1.9-9.5c-11 8.8-17.5 11.5-24.7 11.5-16.4 0-27.7-15.6-27.7-46.3 0-32.6 13.7-48.5 31.2-48.5 6.4 0 11.5 2.5 19.1 9v-40.9l23.1-3.5v128.2zm-4.1-63.5c-5.4-5.1-9.9-7.9-14.1-7.9-7.4 0-12.7 8.3-12.7 26.4 0 17.1 4.4 25.8 12 25.8 4.2 0 9.2-3 14.8-8.3z"/>
				<path id="&lt;Compound Path&gt;" class="s2" d="m545-1008.3v-22.1h23.1v22.1zm0 105.3v-90.8h23.1v90.8z"/>
				<path id="&lt;Compound Path&gt;" class="s2" d="m640.6-907.7c-6 3.5-13.6 6.5-24.1 6.5-20.3 0-33.6-11.3-33.6-46.6 0-32.1 14-48 35.7-48 7.7 0 15.1 2.5 21.3 6l-5.1 19.1c-3.5-2-7.9-3.9-12.3-3.9-9 0-15.7 5.6-15.7 26.3 0 20.1 7 25.4 14.8 25.4 5.4 0 9.5-2 13.7-3.7z"/>
				<path id="&lt;Compound Path&gt;" fill-rule="evenodd" class="s2" d="m671.7-901c-14.5 0-25.4-11.7-25.4-29.1 0-17.3 13.9-28.5 45-28.5h5.1v-2.4c0-10.6-2.1-16.4-14-16.4-8.4 0-18.3 2.6-28 5.8l-4.4-16.1c11.8-4.9 24.5-8.1 36-8.1 24.7 0 33.5 8.1 33.5 30.4v62.4h-19.1l-1.9-9.7c-9.5 8.3-16.2 11.7-26.8 11.7zm18.9-40.6c-17 0-20.9 4-20.9 10.6 0 6.3 3.9 11.1 9.6 11.1 5.3 0 10-2.8 17.1-9.5v-12.2z"/>
			</g>
			<g id="&lt;Group&gt;">
				<path id="&lt;Path&gt;" class="s2" d="m904.6-885.2l-18.4 36.3c-1.3 2.6-3.9 4.2-6.9 4.2-2.9 0-5.5-1.6-6.8-4.2l-93.9-185.4h-18.2c-12.5 0-22.7-10.2-22.7-22.7 0-12.5 10.2-22.7 22.7-22.7h87.8c12.5 0 22.7 10.2 22.7 22.7 0 12.5-10.2 22.7-22.7 22.7h-15.6l72 142.1c1.1 2.2 1.1 4.8 0 7z"/>
				<path id="&lt;Path&gt;" class="s2" d="m1022.1-1050.5v19.8c0 20.3-16.6 36.9-36.9 36.9h-12.8l-35.5 50.8c-1.4 2-4.6 0.7-4.1-1.7l7.5-49.1h-10.9c-20.3 0-36.9-16.6-36.9-36.9v-19.8c0-20.3 16.6-36.8 36.9-36.8h55.8c20.3 0 36.9 16.5 36.9 36.8z"/>
			</g>
		</g>
		<g id="&lt;Group&gt;">
			<g id="&lt;Group&gt;">
				<g id="&lt;Group&gt;">
					<path id="&lt;Compound Path&gt;" class="s2" d="m81 208.5h-37.7l-31.4-131.2h28.4l20.1 88.4 2.5 16.7 2.7-16.9 19.5-88.2h27.8z"/>
					<path id="&lt;Compound Path&gt;" fill-rule="evenodd" class="s2" d="m153 210.5c-29.4 0-40.1-16.6-40.1-51.6 0-34.8 15.2-52.8 42.9-52.8 21.8 0 37.7 14.3 37.7 44.6 0 4.5-0.2 10.7-0.8 15.6h-54.1c0 16.5 5.5 23.3 18.1 23.3 7.8 0 19.7-1.7 30.8-4.8l4.6 17.7c-13.8 5.6-26 8-39.1 8zm15.4-64.1c0-11.4-3.9-20.4-14.6-20.4-10.9 0-15.2 10.5-15.4 21.8h30z"/>
					<path id="&lt;Compound Path&gt;" class="s2" d="m253.6 132.8c-7.4 0-11.7 2.7-18.7 9.2v66.5h-25.5v-100.2h20.8l2.4 12.3c11.3-12.1 15.2-14.5 22.9-14.5h4.3v26.7z"/>
					<path id="&lt;Compound Path&gt;" class="s2" d="m272.5 92.3v-24.3h25.5v24.3zm0 116.2v-100.2h25.5v100.2z"/>
					<path id="&lt;Compound Path&gt;" fill-rule="evenodd" class="s2" d="m374.2 208.5l-2.1-10.5c-12.1 9.7-19.3 12.7-27.2 12.7-18.1 0-30.6-17.2-30.6-51 0-36 15.2-53.6 34.4-53.6 7.1 0 12.7 2.8 21.1 10v-45.2l25.5-3.9v141.5zm-4.5-70c-6-5.7-10.9-8.8-15.6-8.8-8.2 0-14 9.1-14 29.2 0 18.9 4.9 28.4 13.2 28.4 4.7 0 10.2-3.3 16.4-9.1z"/>
					<path id="&lt;Compound Path&gt;" class="s2" d="m415.7 92.3v-24.3h25.5v24.3zm0 116.2v-100.2h25.5v100.2z"/>
					<path id="&lt;Compound Path&gt;" class="s2" d="m521.2 203.3c-6.6 3.9-15 7.2-26.7 7.2-22.4 0-37-12.5-37-51.4 0-35.4 15.4-53 39.3-53 8.6 0 16.8 2.8 23.6 6.7l-5.6 21c-3.9-2.2-8.8-4.3-13.7-4.3-9.9 0-17.3 6.2-17.3 29 0 22.2 7.8 28 16.4 28 6 0 10.5-2.1 15.1-4.1z"/>
					<path id="&lt;Compound Path&gt;" fill-rule="evenodd" class="s2" d="m555.4 210.7c-15.9 0-28-12.9-28-32.2 0-19 15.4-31.3 49.6-31.3h5.7v-2.7c0-11.7-2.4-18.1-15.4-18.1-9.4 0-20.2 2.9-31 6.4l-4.8-17.7c13-5.4 27-9 39.7-9 27.2 0 37 9 37 33.5v68.9h-21.1l-2.1-10.7c-10.5 9.2-17.9 12.9-29.6 12.9zm20.8-44.8c-18.6 0-22.9 4.5-22.9 11.7 0 7 4.3 12.2 10.5 12.2 5.8 0 11.1-3.1 18.9-10.5v-13.4z"/>
				</g>
				<g id="&lt;Group&gt;">
					<path id="&lt;Path&gt;" class="s2" d="m812.3 228.1l-20.2 40.1c-1.5 2.9-4.4 4.6-7.6 4.6-3.2 0-6.1-1.7-7.6-4.6l-103.6-204.6h-20c-13.8 0-25-11.2-25-25 0-13.8 11.2-25 25-25h96.8c13.8 0 25 11.2 25 25 0 13.8-11.2 25-25 25h-17.1l79.3 156.8c1.3 2.4 1.3 5.3 0 7.7z"/>
					<path id="&lt;Path&gt;" class="s2" d="m941.9 45.8v21.8c0 22.4-18.3 40.7-40.7 40.7h-14.1l-39.1 56.1c-1.6 2.2-5 0.7-4.6-1.9l8.3-54.2h-12.1c-22.3 0-40.6-18.3-40.6-40.7v-21.8c0-22.3 18.3-40.6 40.6-40.6h61.6c22.4 0 40.7 18.3 40.7 40.6z"/>
				</g>
			</g>
			<g id="&lt;Group&gt;">
				<path id="&lt;Compound Path&gt;" class="s2" d="m891.4 210.3q-3.5 0-6.5-0.9-3.1-0.9-5.9-2.9v-7.9h4.6l0.7 5.1q1.3 0.9 3.1 1.5 1.8 0.5 4 0.5 2.1 0 3.5-0.6 1.5-0.6 2.2-1.7 0.8-1.1 0.8-2.5 0-1.4-0.7-2.5-0.7-1-2.2-1.9-1.5-0.8-4.1-1.5-3.9-1.1-6.5-2.5-2.6-1.4-3.9-3.4-1.3-2-1.3-4.7 0-2.7 1.5-4.8 1.5-2.2 4.2-3.4 2.6-1.2 6.1-1.2 3.9-0.1 6.8 0.9 2.9 1.1 5 2.8v7.4h-4.5l-0.9-4.9q-1-0.6-2.5-1.1-1.5-0.5-3.6-0.5-1.8 0-3.2 0.6-1.4 0.6-2.2 1.6-0.7 1.1-0.7 2.6 0 1.3 0.6 2.3 0.7 0.9 2.3 1.7 1.6 0.8 4.4 1.6 5.6 1.5 8.5 4.1 2.8 2.6 2.8 6.7 0 2.9-1.5 5-1.6 2.1-4.4 3.3-2.8 1.2-6.5 1.2z"/>
				<path id="&lt;Compound Path&gt;" class="s2" d="m915.3 209.8v-3.6l3.7-0.7v-25.5h-6.9l-0.5 4.4h-4.5v-9h29.8v9h-4.5l-0.5-4.4h-6.9v25.5l3.7 0.7v3.6z"/>
				<path id="&lt;Compound Path&gt;" fill-rule="evenodd" class="s2" d="m934.9 209.8v-3.6l2.5-0.4 11.4-30.4h5.8l11.2 30.4 2.5 0.4v3.6h-10.9v-3.6l2.4-0.5-1.8-5.4h-12.8l-1.8 5.4 2.4 0.5v3.6zm11.9-14h9.7l-4.5-12.8-0.3-0.9h-0.1l-0.3 1z"/>
				<path id="&lt;Compound Path&gt;" class="s2" d="m971.1 209.8v-3.6l3.8-0.7v-25.7l-3.8-0.7v-3.7h3.8 6l15.8 25.1h0.1v-20.7l-4.3-0.7v-3.7h9.7 3.7v3.7l-3.7 0.7v30h-5.7l-16.1-25h-0.2v20.7l4.4 0.7v3.6z"/>
				<path id="&lt;Compound Path&gt;" fill-rule="evenodd" class="s2" d="m1008.9 209.8v-3.6l3.7-0.8v-25.6l-3.7-0.7v-3.7h14.4q4.6 0 8 2.2 3.5 2.2 5.4 6 2 3.8 2 8.7v0.7q0 4.8-1.9 8.6-1.9 3.8-5.4 6-3.4 2.2-8 2.2zm9.8-4.6h4.5q3 0 5.1-1.6 2.2-1.6 3.3-4.4 1.1-2.8 1.1-6.2v-0.7q0-3.6-1.1-6.4-1.1-2.7-3.3-4.3-2.1-1.6-5.1-1.6h-4.5z"/>
				<path id="&lt;Compound Path&gt;" class="s2" d="m1053.8 209.8v-3.6l3.7-0.7v-25.7l-3.7-0.7v-3.7h26.7v9h-4.6l-0.4-4.4h-12v10.5h12.2v4.6h-12.2v10.4l3.7 0.7v3.6z"/>
				<path id="&lt;Compound Path&gt;" fill-rule="evenodd" class="s2" d="m1097.5 210.3q-3.4 0-6.2-1.3-2.7-1.3-4.7-3.6-2-2.4-3-5.5-1.1-3.2-1.1-7v-0.5q0-3.8 1.1-7 1-3.2 3-5.5 2-2.4 4.7-3.7 2.8-1.3 6.2-1.3 3.5 0 6.3 1.3 2.8 1.3 4.8 3.7 1.9 2.3 2.9 5.5 1.1 3.2 1.1 7v0.5q0 3.8-1.1 7-1 3.1-2.9 5.5-2 2.3-4.8 3.6-2.8 1.3-6.3 1.3zm0-4.7q3.1 0 5.2-1.6 2-1.6 3-4.5 0.9-2.8 0.9-6.6v-0.6q0-3.7-1-6.6-0.9-2.8-3-4.4-2-1.6-5.1-1.6-3 0-5 1.6-2 1.6-3 4.4-1 2.9-1 6.6v0.6q0 3.8 1 6.6 1 2.9 3 4.5 2.1 1.6 5 1.6z"/>
				<path id="&lt;Compound Path&gt;" fill-rule="evenodd" class="s2" d="m1115.7 209.8v-3.6l3.7-0.7v-25.7l-3.7-0.7v-3.7h15.9q3.8 0 6.6 1.2 2.7 1.2 4.2 3.4 1.4 2.3 1.4 5.4 0 3-1.4 5.3-1.5 2.2-4 3.4-0.4 0.2-0.7 0.4l4.9 11.1 2.7 0.5v3.7h-7.3l-5.9-14.4-6.7 0.1v10l3.7 0.7v3.6zm9.7-18.9h6q3.3 0 4.9-1.4 1.6-1.3 1.6-3.9 0-2.6-1.5-4.1-1.6-1.5-4.8-1.5h-6.2z"/>
				<path id="&lt;Compound Path&gt;" class="s2" d="m1160.6 209.8v-3.6l3.8-0.7v-25.7l-3.8-0.7v-3.7h26.7v9h-4.6l-0.4-4.4h-12v10.5h12.3v4.6h-12.3v10.4l3.8 0.7v3.6z"/>
				<path id="&lt;Compound Path&gt;" fill-rule="evenodd" class="s2" d="m1184.8 209.8v-3.6l2.5-0.4 11.3-30.4h5.8l11.3 30.4 2.5 0.4v3.6h-11v-3.6l2.5-0.5-1.8-5.4h-12.8l-1.9 5.4 2.5 0.5v3.6zm11.9-14h9.7l-4.5-12.8-0.3-0.9h-0.1l-0.4 1z"/>
				<path id="&lt;Compound Path&gt;" class="s2" d="m1235.5 210.3q-5.1 0-8.7-2.2-3.6-2.1-5.5-6-1.9-3.9-1.9-9v-0.9q0-5 1.9-8.9 1.9-3.9 5.4-6.1 3.5-2.3 8.4-2.3 3.4 0 6.4 1 2.9 1.1 5.1 2.9v7.9h-4.6l-0.6-5.3q-0.8-0.5-1.7-0.9-1-0.4-2.1-0.7-1.1-0.2-2.4-0.2-3.1 0-5.3 1.6-2.2 1.5-3.4 4.4-1.1 2.8-1.1 6.5v1q0 3.9 1.2 6.7 1.2 2.8 3.5 4.3 2.3 1.5 5.5 1.5 1.6 0 3.1-0.3 1.5-0.4 2.7-1l0.6-4.8h4.5v7.9q-2 1.3-4.8 2.1-2.9 0.8-6.2 0.8z"/>
				<path id="&lt;Compound Path&gt;" class="s2" d="m1257.8 209.8v-3.6l3.8-0.7v-25.5h-6.9l-0.6 4.4h-4.4v-9h29.7v9h-4.4l-0.6-4.4h-6.9v25.5l3.8 0.7v3.6z"/>
				<path id="&lt;Compound Path&gt;" class="s2" d="m1295.6 210.3q-3.6 0-6.6-0.9-3-0.9-5.9-2.9v-7.9h4.6l0.8 5.1q1.3 0.9 3.1 1.5 1.8 0.5 4 0.5 2.1 0 3.5-0.6 1.4-0.6 2.2-1.7 0.7-1.1 0.7-2.5 0-1.4-0.6-2.5-0.7-1-2.2-1.9-1.6-0.8-4.2-1.5-3.8-1.1-6.4-2.5-2.6-1.4-3.9-3.4-1.3-2-1.3-4.7 0-2.7 1.5-4.8 1.5-2.2 4.1-3.4 2.7-1.2 6.2-1.2 3.8-0.1 6.8 0.9 2.9 1.1 4.9 2.8v7.4h-4.5l-0.8-4.9q-1-0.6-2.5-1.1-1.6-0.5-3.7-0.5-1.8 0-3.1 0.6-1.4 0.6-2.2 1.6-0.8 1.1-0.8 2.6 0 1.3 0.7 2.3 0.7 0.9 2.3 1.7 1.6 0.8 4.3 1.6 5.6 1.5 8.5 4.1 2.9 2.6 2.9 6.7 0 2.9-1.5 5-1.6 2.1-4.4 3.3-2.8 1.2-6.5 1.2z"/>
			</g>
		</g>
	</g>
</svg>